<mxfile host="app.diagrams.net" modified="2021-02-16T03:20:58.893Z" agent="5.0 (Windows NT 10.0; Win64; x64) AppleWebKit/537.36 (KHTML, like Gecko) Chrome/88.0.4324.150 Safari/537.36" etag="aXlN1JWu2Ce6KeTWWh0K" version="14.3.2" type="github">
  <diagram id="2T9M7iN6auXtOP7wsKiC" name="Page-1">
    <mxGraphModel dx="1221" dy="682" grid="1" gridSize="10" guides="1" tooltips="1" connect="1" arrows="1" fold="1" page="1" pageScale="1" pageWidth="850" pageHeight="1100" math="0" shadow="0">
      <root>
        <mxCell id="0" />
        <mxCell id="1" parent="0" />
        <mxCell id="XiCdpw9QJ9v4NAa5uUNg-10" style="edgeStyle=orthogonalEdgeStyle;rounded=0;orthogonalLoop=1;jettySize=auto;html=1;" edge="1" parent="1" source="XiCdpw9QJ9v4NAa5uUNg-3" target="XiCdpw9QJ9v4NAa5uUNg-4">
          <mxGeometry relative="1" as="geometry" />
        </mxCell>
        <mxCell id="XiCdpw9QJ9v4NAa5uUNg-3" value="" style="ellipse;whiteSpace=wrap;html=1;aspect=fixed;shadow=0;fillColor=#33001A;" vertex="1" parent="1">
          <mxGeometry x="345" y="20" width="30" height="30" as="geometry" />
        </mxCell>
        <mxCell id="XiCdpw9QJ9v4NAa5uUNg-21" style="edgeStyle=orthogonalEdgeStyle;rounded=0;orthogonalLoop=1;jettySize=auto;html=1;entryX=0.5;entryY=0;entryDx=0;entryDy=0;" edge="1" parent="1" source="XiCdpw9QJ9v4NAa5uUNg-4" target="XiCdpw9QJ9v4NAa5uUNg-18">
          <mxGeometry relative="1" as="geometry" />
        </mxCell>
        <mxCell id="XiCdpw9QJ9v4NAa5uUNg-4" value="Create Macro" style="rounded=1;whiteSpace=wrap;html=1;shadow=0;fillColor=#FFFFFF;" vertex="1" parent="1">
          <mxGeometry x="310" y="110" width="100" height="50" as="geometry" />
        </mxCell>
        <mxCell id="XiCdpw9QJ9v4NAa5uUNg-30" style="edgeStyle=orthogonalEdgeStyle;rounded=0;orthogonalLoop=1;jettySize=auto;html=1;entryX=0;entryY=0.5;entryDx=0;entryDy=0;" edge="1" parent="1" source="XiCdpw9QJ9v4NAa5uUNg-12" target="XiCdpw9QJ9v4NAa5uUNg-26">
          <mxGeometry relative="1" as="geometry" />
        </mxCell>
        <mxCell id="XiCdpw9QJ9v4NAa5uUNg-12" value="Format Data" style="rounded=1;whiteSpace=wrap;html=1;shadow=0;fillColor=#FFFFFF;" vertex="1" parent="1">
          <mxGeometry x="110" y="440" width="100" height="50" as="geometry" />
        </mxCell>
        <mxCell id="XiCdpw9QJ9v4NAa5uUNg-16" value="Export to CSV" style="rounded=1;whiteSpace=wrap;html=1;shadow=0;fillColor=#FFFFFF;" vertex="1" parent="1">
          <mxGeometry x="310" y="580" width="100" height="50" as="geometry" />
        </mxCell>
        <mxCell id="XiCdpw9QJ9v4NAa5uUNg-22" style="edgeStyle=orthogonalEdgeStyle;rounded=0;orthogonalLoop=1;jettySize=auto;html=1;" edge="1" parent="1" source="XiCdpw9QJ9v4NAa5uUNg-18" target="XiCdpw9QJ9v4NAa5uUNg-12">
          <mxGeometry relative="1" as="geometry" />
        </mxCell>
        <mxCell id="XiCdpw9QJ9v4NAa5uUNg-27" style="edgeStyle=orthogonalEdgeStyle;rounded=0;orthogonalLoop=1;jettySize=auto;html=1;entryX=0.5;entryY=0;entryDx=0;entryDy=0;" edge="1" parent="1" source="XiCdpw9QJ9v4NAa5uUNg-18" target="XiCdpw9QJ9v4NAa5uUNg-26">
          <mxGeometry relative="1" as="geometry" />
        </mxCell>
        <mxCell id="XiCdpw9QJ9v4NAa5uUNg-18" value="Correct Data?" style="rhombus;whiteSpace=wrap;html=1;shadow=0;fillColor=#FFFFFF;" vertex="1" parent="1">
          <mxGeometry x="315" y="210" width="90" height="90" as="geometry" />
        </mxCell>
        <mxCell id="XiCdpw9QJ9v4NAa5uUNg-19" value="Yes" style="text;html=1;strokeColor=none;fillColor=none;align=center;verticalAlign=middle;whiteSpace=wrap;rounded=0;shadow=0;" vertex="1" parent="1">
          <mxGeometry x="365" y="310" width="40" height="20" as="geometry" />
        </mxCell>
        <mxCell id="XiCdpw9QJ9v4NAa5uUNg-24" value="No" style="text;html=1;strokeColor=none;fillColor=none;align=center;verticalAlign=middle;whiteSpace=wrap;rounded=0;shadow=0;" vertex="1" parent="1">
          <mxGeometry x="240" y="230" width="40" height="20" as="geometry" />
        </mxCell>
        <mxCell id="XiCdpw9QJ9v4NAa5uUNg-28" style="edgeStyle=orthogonalEdgeStyle;rounded=0;orthogonalLoop=1;jettySize=auto;html=1;entryX=0.5;entryY=0;entryDx=0;entryDy=0;" edge="1" parent="1" source="XiCdpw9QJ9v4NAa5uUNg-26" target="XiCdpw9QJ9v4NAa5uUNg-16">
          <mxGeometry relative="1" as="geometry" />
        </mxCell>
        <mxCell id="XiCdpw9QJ9v4NAa5uUNg-26" value="Insert Data to Corresponding Cell" style="rounded=1;whiteSpace=wrap;html=1;shadow=0;fillColor=#FFFFFF;" vertex="1" parent="1">
          <mxGeometry x="310" y="440" width="100" height="50" as="geometry" />
        </mxCell>
      </root>
    </mxGraphModel>
  </diagram>
</mxfile>
